<?xml version="1.0" standalone="no"?>
<!DOCTYPE svg PUBLIC "-//W3C//DTD SVG 20010904//EN"
 "http://www.w3.org/TR/2001/REC-SVG-20010904/DTD/svg10.dtd">
<svg version="1.0" xmlns="http://www.w3.org/2000/svg"
 width="177.000000pt" height="177.000000pt" viewBox="0 0 177.000000 177.000000"
 preserveAspectRatio="xMidYMid meet">
<metadata>
Created by potrace 1.14, written by Peter Selinger 2001-2017
</metadata>
<g transform="translate(0.000000,177.000000) scale(0.100000,-0.100000)"
fill="#000000" stroke="none">
<path d="M770 1462 c-146 -39 -265 -150 -314 -295 -12 -34 -26 -62 -31 -63
-93 -7 -154 -36 -185 -86 -30 -49 -28 -172 3 -219 28 -42 80 -69 150 -76 46
-5 57 -2 80 18 27 24 27 24 31 189 5 174 13 214 61 295 36 61 93 111 166 144
146 66 313 36 426 -78 87 -87 113 -169 113 -364 0 -201 22 -229 158 -195 97
24 125 62 125 178 0 83 -16 126 -56 153 -25 16 -92 37 -136 41 -19 2 -27 12
-36 42 -46 152 -172 279 -315 316 -68 18 -172 18 -240 0z m-340 -553 l0 -121
-32 7 c-84 17 -96 24 -102 63 -8 53 0 122 16 137 13 14 69 32 101 34 15 1 17
-11 17 -120z m988 106 c51 -11 62 -28 62 -104 0 -39 -5 -74 -12 -83 -12 -15
-105 -41 -118 -33 -5 3 -6 221 -1 233 0 2 9 1 19 -2 9 -2 32 -7 50 -11z"/>
<path d="M816 1278 c-55 -12 -140 -63 -174 -104 -59 -71 -77 -121 -76 -214 0
-67 5 -95 23 -131 30 -63 98 -132 163 -166 50 -26 62 -27 211 -31 88 -2 170
-1 183 2 46 12 48 71 5 103 -14 10 -14 13 2 31 46 50 70 174 52 266 -31 160
-224 281 -389 244z m155 -80 c51 -17 106 -64 137 -116 23 -40 27 -58 27 -122
0 -80 -15 -121 -63 -172 -15 -17 -25 -38 -24 -56 l1 -29 -110 3 c-123 3 -172
19 -228 75 -92 91 -100 241 -19 339 21 26 81 67 113 78 41 14 125 14 166 0z"/>
<path d="M745 986 c-20 -15 -17 -44 7 -59 12 -8 21 -7 32 2 36 30 -1 85 -39
57z"/>
<path d="M867 988 c-20 -11 -22 -39 -5 -56 16 -16 33 -15 52 4 29 28 -11 72
-47 52z"/>
<path d="M993 990 c-43 -17 -18 -79 26 -65 27 8 33 31 13 54 -13 15 -22 17
-39 11z"/>
<path d="M476 644 c-9 -8 -16 -20 -16 -25 0 -19 91 -106 137 -131 53 -29 161
-63 170 -54 9 9 44 -14 38 -25 -10 -15 13 -73 36 -92 11 -10 37 -20 58 -22
101 -10 159 102 92 177 l-29 33 -109 1 c-153 2 -224 30 -310 120 -36 38 -45
41 -67 18z m466 -245 c-3 -27 -17 -38 -42 -32 -24 6 -32 40 -14 58 22 21 60 4
56 -26z"/>
</g>
</svg>
